<svg id="svg" xmlns="http://www.w3.org/2000/svg" xmlns:xlink="http://www.w3.org/1999/xlink" width="400" height="270.9236031927024" viewBox="0, 0, 400,270.9236031927024"><g id="svgg"><path id="path0" d="M299.790 35.120 C 299.659 35.621,299.385 36.032,299.182 36.032 C 298.678 36.032,297.377 38.711,297.377 39.751 C 297.377 40.214,297.223 40.595,297.035 40.596 C 296.592 40.601,295.553 42.839,295.553 43.789 C 295.553 44.193,295.252 44.922,294.883 45.409 C 294.515 45.896,294.207 46.744,294.199 47.293 C 294.191 47.843,294.003 48.405,293.782 48.542 C 293.560 48.679,293.234 49.955,293.056 51.379 C 292.878 52.802,292.546 54.344,292.318 54.805 C 292.091 55.267,291.706 56.040,291.464 56.525 C 291.222 57.009,290.885 58.759,290.716 60.414 C 290.546 62.069,290.231 63.533,290.016 63.666 C 289.800 63.799,289.624 64.409,289.624 65.021 C 289.624 65.634,289.418 66.135,289.168 66.135 C 288.917 66.135,288.712 67.149,288.712 68.388 C 288.712 69.628,288.526 70.756,288.299 70.896 C 288.073 71.037,287.740 73.310,287.560 75.948 C 287.380 78.586,287.053 80.855,286.832 80.992 C 286.612 81.128,286.431 82.550,286.431 84.151 C 286.431 85.751,286.252 87.172,286.034 87.307 C 285.816 87.442,285.489 90.276,285.309 93.605 C 284.963 100.003,284.323 101.710,282.274 101.710 C 281.830 101.710,281.341 101.916,281.186 102.166 C 281.031 102.417,280.403 102.623,279.791 102.623 C 279.178 102.623,278.677 102.812,278.677 103.042 C 278.677 103.273,278.064 103.597,277.314 103.762 C 276.565 103.926,275.834 104.251,275.691 104.482 C 275.548 104.714,274.839 104.903,274.116 104.903 C 273.393 104.903,272.675 105.108,272.520 105.359 C 272.365 105.610,271.788 105.822,271.239 105.830 C 270.689 105.838,269.841 106.146,269.354 106.514 C 268.867 106.882,267.995 107.184,267.416 107.184 C 266.836 107.184,266.361 107.338,266.359 107.526 C 266.355 107.928,264.152 109.008,263.334 109.008 C 263.023 109.008,261.582 109.624,260.131 110.376 C 258.681 111.129,257.249 111.745,256.949 111.745 C 256.649 111.745,255.050 112.463,253.395 113.341 C 251.740 114.219,250.122 114.937,249.799 114.937 C 248.965 114.937,246.758 116.012,246.754 116.420 C 246.752 116.608,246.546 116.762,246.297 116.762 C 245.518 116.762,242.189 118.327,242.189 118.694 C 242.189 118.885,241.964 119.042,241.688 119.042 C 241.141 119.042,237.996 120.437,237.628 120.843 C 237.347 121.153,234.769 122.573,230.559 124.735 C 227.154 126.484,225.681 127.326,225.314 127.732 C 225.188 127.870,224.367 128.338,223.489 128.771 C 221.701 129.652,220.697 130.245,218.700 131.597 C 217.948 132.107,216.306 133.028,215.051 133.645 C 213.797 134.261,212.648 134.936,212.497 135.144 C 211.999 135.833,209.718 136.830,208.641 136.830 C 208.057 136.830,207.468 137.010,207.332 137.231 C 207.196 137.451,205.810 137.724,204.252 137.836 C 202.662 137.951,201.343 138.276,201.242 138.576 C 201.144 138.870,200.272 139.111,199.305 139.111 C 198.337 139.111,197.435 139.289,197.300 139.507 C 197.166 139.725,195.619 140.044,193.863 140.218 C 192.107 140.391,190.551 140.725,190.405 140.962 C 190.259 141.198,189.548 141.391,188.826 141.391 C 188.103 141.391,187.401 141.569,187.266 141.787 C 187.132 142.005,185.585 142.325,183.829 142.498 C 182.073 142.671,180.517 143.006,180.371 143.242 C 180.225 143.478,179.309 143.672,178.335 143.672 C 177.361 143.672,176.438 143.877,176.283 144.128 C 176.128 144.379,175.409 144.584,174.686 144.584 C 173.963 144.584,173.263 144.760,173.130 144.975 C 172.997 145.190,171.725 145.486,170.302 145.633 C 168.879 145.779,167.498 146.117,167.233 146.382 C 166.967 146.647,166.290 146.864,165.728 146.864 C 165.166 146.864,164.594 147.045,164.458 147.266 C 164.321 147.487,162.668 147.813,160.785 147.989 C 158.902 148.165,157.245 148.498,157.103 148.727 C 156.961 148.957,156.138 149.145,155.275 149.145 C 154.412 149.145,153.706 149.329,153.706 149.553 C 153.706 149.778,152.063 150.108,150.054 150.285 C 148.046 150.463,146.290 150.792,146.151 151.017 C 146.012 151.242,145.307 151.425,144.584 151.425 C 143.861 151.425,143.142 151.631,142.987 151.881 C 142.832 152.132,141.938 152.338,140.999 152.338 C 140.061 152.338,139.076 152.555,138.811 152.820 C 138.545 153.085,137.164 153.422,135.741 153.569 C 134.319 153.716,133.046 154.012,132.913 154.227 C 132.780 154.442,132.080 154.618,131.357 154.618 C 130.634 154.618,129.926 154.807,129.783 155.038 C 129.640 155.269,128.191 155.601,126.563 155.776 C 124.935 155.950,123.603 156.274,123.603 156.496 C 123.603 156.717,122.885 156.899,122.007 156.899 C 121.129 156.899,120.410 157.104,120.410 157.355 C 120.410 157.605,119.704 157.811,118.841 157.811 C 117.978 157.811,117.144 158.017,116.989 158.268 C 116.833 158.520,116.228 158.606,115.643 158.460 C 115.059 158.313,114.444 158.415,114.276 158.686 C 114.108 158.957,113.262 159.179,112.396 159.179 C 111.529 159.179,110.412 159.384,109.914 159.635 C 109.416 159.886,108.631 160.278,108.169 160.505 C 107.708 160.733,106.166 161.065,104.742 161.243 C 103.319 161.421,102.042 161.747,101.905 161.969 C 101.769 162.190,101.168 162.372,100.570 162.372 C 99.973 162.372,99.361 162.571,99.210 162.815 C 99.059 163.058,97.914 163.393,96.664 163.559 C 95.415 163.725,94.282 164.038,94.148 164.256 C 94.013 164.474,93.194 164.652,92.327 164.652 C 91.461 164.652,90.344 164.857,89.846 165.108 C 89.347 165.359,88.572 165.744,88.123 165.965 C 87.674 166.185,86.238 166.512,84.931 166.691 C 83.624 166.871,82.440 167.204,82.300 167.432 C 82.159 167.659,81.453 167.845,80.730 167.845 C 80.007 167.845,79.301 168.030,79.161 168.256 C 79.021 168.482,77.675 168.810,76.169 168.985 C 74.663 169.160,73.316 169.488,73.176 169.714 C 73.037 169.940,72.360 170.125,71.672 170.125 C 70.984 170.125,70.227 170.310,69.989 170.536 C 69.750 170.761,68.067 171.090,66.249 171.266 L 62.942 171.586 62.942 169.743 C 62.942 168.728,62.765 167.790,62.549 167.656 C 62.334 167.523,62.036 166.536,61.887 165.463 C 61.376 161.772,58.057 156.829,55.082 155.329 C 54.002 154.784,53.798 151.779,54.772 150.764 C 55.001 150.526,55.188 149.768,55.188 149.081 C 55.188 148.393,55.369 147.718,55.591 147.581 C 55.812 147.444,56.135 146.201,56.308 144.818 C 56.481 143.435,56.813 142.303,57.045 142.303 C 57.278 142.303,57.469 141.585,57.469 140.707 C 57.469 139.829,57.659 139.111,57.892 139.111 C 58.125 139.111,58.457 137.979,58.629 136.596 C 58.802 135.213,59.125 133.969,59.346 133.833 C 59.568 133.696,59.749 133.083,59.749 132.470 C 59.749 131.858,59.954 131.357,60.205 131.357 C 60.456 131.357,60.661 130.856,60.661 130.244 C 60.661 129.631,60.855 129.011,61.091 128.865 C 61.327 128.719,61.659 127.678,61.828 126.552 C 61.997 125.426,62.316 124.392,62.538 124.255 C 62.760 124.118,62.942 123.443,62.942 122.755 C 62.942 122.068,63.145 121.302,63.394 121.053 C 63.642 120.805,63.967 119.584,64.115 118.340 C 64.263 117.095,64.751 115.257,65.198 114.253 C 65.995 112.465,66.869 109.562,67.359 107.070 C 67.495 106.380,67.788 105.815,68.011 105.815 C 68.233 105.815,68.415 105.314,68.415 104.702 C 68.415 104.090,68.596 103.477,68.818 103.340 C 69.039 103.203,69.362 101.959,69.535 100.576 C 69.708 99.193,70.039 98.062,70.272 98.062 C 70.505 98.062,70.696 97.561,70.696 96.948 C 70.696 96.336,70.889 95.715,71.125 95.569 C 71.362 95.423,71.700 94.337,71.877 93.155 C 72.054 91.973,72.579 90.330,73.044 89.503 C 73.508 88.676,73.888 87.595,73.888 87.101 C 73.888 86.607,74.067 86.203,74.286 86.203 C 74.505 86.203,74.815 85.382,74.976 84.379 C 75.136 83.375,75.470 82.554,75.718 82.554 C 75.966 82.554,76.169 82.053,76.169 81.441 C 76.169 80.828,76.374 80.201,76.625 80.046 C 76.876 79.891,77.081 79.448,77.081 79.063 C 77.081 78.132,80.119 71.757,80.749 71.368 C 81.020 71.200,81.434 70.621,81.669 70.081 C 82.298 68.635,83.135 67.384,84.036 66.544 C 84.475 66.134,84.835 65.632,84.835 65.426 C 84.835 65.221,85.274 64.586,85.810 64.015 C 86.880 62.876,87.559 61.777,88.796 59.179 C 89.244 58.238,89.768 57.469,89.959 57.469 C 90.151 57.469,90.308 57.193,90.308 56.855 C 90.308 56.518,90.742 55.851,91.272 55.373 C 91.803 54.895,92.418 54.094,92.640 53.592 C 93.081 52.593,94.047 50.987,94.423 50.627 C 94.645 50.416,95.186 49.644,97.269 46.568 C 97.711 45.916,98.196 45.023,98.348 44.584 C 98.500 44.145,98.782 43.786,98.975 43.786 C 99.168 43.786,99.429 43.119,99.555 42.303 C 99.835 40.482,98.861 39.225,97.170 39.225 C 96.506 39.225,95.715 38.976,95.412 38.673 C 94.234 37.495,90.356 40.757,88.497 44.488 C 87.877 45.732,86.866 47.432,86.251 48.266 C 84.760 50.285,81.648 56.579,81.645 57.583 C 81.643 58.022,81.437 58.381,81.186 58.381 C 80.935 58.381,80.730 58.780,80.730 59.269 C 80.730 59.757,80.217 61.122,79.590 62.301 C 78.962 63.481,78.443 64.775,78.435 65.176 C 78.427 65.578,78.119 66.305,77.751 66.792 C 77.382 67.279,77.081 68.356,77.081 69.186 C 77.081 70.016,76.876 70.696,76.625 70.696 C 76.374 70.696,76.169 71.184,76.169 71.780 C 76.169 72.376,75.861 73.120,75.485 73.432 C 75.108 73.744,74.800 74.271,74.800 74.602 C 74.800 74.934,74.441 75.473,74.002 75.801 C 73.563 76.129,71.562 78.244,69.555 80.502 C 67.548 82.759,65.753 84.675,65.564 84.759 C 65.376 84.842,65.222 85.157,65.222 85.457 C 65.222 85.758,63.991 87.222,62.486 88.712 C 60.981 90.201,59.749 91.634,59.749 91.897 C 59.749 92.510,48.713 103.535,48.099 103.535 C 47.844 103.535,46.314 104.869,44.698 106.499 C 43.082 108.130,41.537 109.464,41.266 109.464 C 40.994 109.464,40.076 110.182,39.225 111.060 C 38.374 111.938,37.491 112.657,37.262 112.657 C 37.034 112.657,36.444 113.170,35.950 113.797 C 35.457 114.424,34.828 114.937,34.552 114.937 C 34.277 114.937,33.675 115.278,33.214 115.695 C 32.241 116.576,30.671 117.536,29.532 117.948 C 29.094 118.107,28.734 118.418,28.734 118.639 C 28.734 118.861,28.458 119.042,28.121 119.042 C 27.783 119.042,27.121 119.469,26.650 119.990 C 26.178 120.511,24.915 121.337,23.843 121.826 C 22.770 122.314,21.893 122.865,21.893 123.050 C 21.893 123.399,21.526 123.619,18.184 125.274 C 14.486 127.106,12.862 130.688,15.103 132.073 C 15.670 132.423,17.788 130.537,17.788 129.681 C 17.788 129.348,18.071 129.076,18.416 129.076 C 18.762 129.076,19.318 128.747,19.652 128.345 C 19.986 127.942,20.678 127.430,21.190 127.206 C 22.540 126.614,23.683 125.865,25.998 124.051 C 27.127 123.167,29.076 121.938,30.331 121.319 C 31.585 120.701,32.775 119.936,32.976 119.619 C 33.177 119.302,33.596 119.042,33.907 119.042 C 34.219 119.042,35.380 118.119,36.488 116.990 C 37.596 115.861,38.732 114.937,39.012 114.937 C 39.292 114.937,40.004 114.424,40.593 113.797 C 41.182 113.170,41.872 112.657,42.126 112.657 C 42.379 112.657,43.832 111.445,45.353 109.963 C 46.874 108.481,51.249 104.231,55.074 100.519 C 58.900 96.806,62.030 93.591,62.030 93.376 C 62.030 93.160,63.261 91.811,64.766 90.379 C 66.271 88.947,67.503 87.566,67.503 87.310 C 67.503 86.792,70.776 83.466,71.285 83.466 C 71.868 83.466,71.623 84.780,70.750 86.334 C 70.278 87.174,69.749 88.512,69.575 89.307 C 69.400 90.103,69.068 90.871,68.836 91.014 C 68.605 91.157,68.415 92.083,68.415 93.071 C 68.415 94.060,68.210 94.869,67.959 94.869 C 67.708 94.869,67.503 95.256,67.503 95.729 C 67.503 96.202,67.196 97.177,66.822 97.895 C 66.447 98.614,66.139 99.549,66.137 99.973 C 66.136 100.397,65.929 100.871,65.678 101.026 C 65.428 101.181,65.222 101.900,65.222 102.623 C 65.222 103.346,65.036 104.052,64.809 104.193 C 64.582 104.333,64.249 105.517,64.069 106.824 C 63.889 108.131,63.562 109.567,63.342 110.016 C 63.122 110.465,62.762 111.200,62.542 111.649 C 62.322 112.098,61.995 113.534,61.815 114.841 C 61.635 116.148,61.302 117.218,61.075 117.218 C 60.847 117.218,60.661 117.836,60.661 118.592 C 60.661 119.348,60.456 120.374,60.205 120.873 C 59.089 123.091,58.935 123.493,58.640 124.986 C 58.341 126.502,57.820 127.947,56.965 129.631 C 56.747 130.062,56.432 131.601,56.265 133.052 C 56.099 134.503,55.839 135.792,55.689 135.918 C 54.879 136.595,54.274 138.465,54.000 141.144 C 53.830 142.799,53.515 144.262,53.299 144.395 C 53.084 144.529,52.908 145.132,52.908 145.737 C 52.908 146.342,52.497 147.567,51.995 148.461 C 51.494 149.354,51.083 150.566,51.083 151.155 C 51.083 152.823,50.303 153.107,44.932 153.397 C 42.103 153.549,39.853 153.874,39.763 154.142 C 39.676 154.404,39.121 154.618,38.529 154.618 C 37.938 154.618,37.335 154.811,37.188 155.048 C 37.042 155.284,35.990 155.617,34.850 155.788 C 33.565 155.981,32.573 156.425,32.242 156.955 C 31.948 157.426,31.326 157.811,30.860 157.811 C 29.707 157.811,26.842 159.182,25.971 160.151 C 25.580 160.586,24.722 161.077,24.066 161.242 C 23.409 161.407,22.517 161.934,22.084 162.413 C 21.650 162.892,21.015 163.284,20.672 163.284 C 20.329 163.284,19.157 164.105,18.069 165.108 C 16.980 166.112,15.902 166.933,15.673 166.933 C 15.024 166.933,8.918 173.393,8.200 174.839 C 6.924 177.410,7.499 180.121,9.809 182.429 L 11.876 184.493 19.670 184.420 C 24.599 184.374,27.648 184.165,27.963 183.850 C 28.237 183.576,29.023 183.352,29.711 183.352 C 30.398 183.352,31.070 183.176,31.203 182.961 C 31.335 182.746,32.608 182.450,34.031 182.304 C 35.454 182.157,36.835 181.819,37.100 181.554 C 37.366 181.289,38.145 181.072,38.833 181.072 C 39.520 181.072,40.210 180.867,40.365 180.616 C 41.204 179.257,44.242 180.130,44.242 181.729 C 44.242 182.592,44.061 183.410,43.840 183.547 C 43.619 183.683,43.293 185.542,43.115 187.677 C 42.937 189.812,42.605 191.674,42.377 191.815 C 42.148 191.957,41.961 192.635,41.961 193.322 C 41.961 194.010,41.753 194.781,41.499 195.035 C 41.233 195.301,40.911 199.807,40.741 205.635 C 40.579 211.210,40.274 215.879,40.064 216.009 C 39.853 216.139,39.681 218.889,39.681 222.121 C 39.681 225.546,39.491 228.114,39.225 228.278 C 38.625 228.649,38.625 237.942,39.225 238.312 C 39.492 238.477,39.681 241.099,39.681 244.634 C 39.681 247.955,39.880 250.872,40.124 251.116 C 40.368 251.360,40.706 253.049,40.875 254.870 C 41.044 256.692,41.358 258.290,41.572 258.422 C 41.786 258.554,41.961 259.167,41.961 259.782 C 41.961 261.564,44.624 265.450,45.844 265.450 C 46.750 265.450,48.237 263.456,48.564 261.802 C 48.955 259.825,49.831 257.697,50.255 257.697 C 50.429 257.697,50.714 256.255,50.888 254.494 C 51.061 252.732,51.381 251.181,51.599 251.046 C 51.817 250.912,51.995 250.005,51.995 249.031 C 51.995 248.057,52.201 247.133,52.452 246.978 C 52.702 246.823,52.908 245.929,52.908 244.990 C 52.908 244.052,53.109 243.083,53.355 242.837 C 53.601 242.591,53.940 240.292,54.108 237.728 C 54.276 235.165,54.587 233.067,54.801 233.067 C 55.014 233.067,55.188 232.053,55.188 230.814 C 55.188 229.574,55.363 228.452,55.577 228.320 C 55.791 228.187,56.085 226.506,56.231 224.583 C 56.376 222.661,56.714 220.868,56.982 220.601 C 57.250 220.333,57.469 219.273,57.469 218.244 C 57.469 217.216,57.652 216.179,57.875 215.941 C 58.099 215.702,58.370 213.707,58.478 211.507 C 58.586 209.306,58.916 207.264,59.212 206.968 C 59.507 206.673,59.749 205.663,59.749 204.725 C 59.749 203.786,59.954 202.892,60.205 202.737 C 60.456 202.582,60.661 201.687,60.661 200.748 C 60.661 199.810,60.872 198.831,61.130 198.574 C 61.388 198.316,61.727 195.702,61.885 192.764 C 62.042 189.827,62.354 187.310,62.579 187.172 C 62.803 187.033,62.739 186.622,62.436 186.257 C 62.019 185.755,62.014 185.466,62.414 185.066 C 62.740 184.740,62.942 182.873,62.942 180.180 C 62.942 175.854,62.951 175.817,64.196 175.307 C 66.837 174.225,67.316 174.107,68.711 174.198 C 69.501 174.250,70.283 174.073,70.448 173.805 C 70.614 173.537,71.341 173.318,72.064 173.318 C 72.787 173.318,73.505 173.113,73.660 172.862 C 73.815 172.611,74.431 172.406,75.029 172.406 C 75.626 172.406,76.225 172.228,76.360 172.010 C 76.494 171.792,77.834 171.475,79.337 171.305 C 80.840 171.135,82.191 170.800,82.339 170.560 C 82.487 170.321,83.200 170.125,83.922 170.125 C 84.645 170.125,85.349 169.944,85.486 169.723 C 85.623 169.501,86.866 169.178,88.249 169.006 C 89.632 168.833,90.764 168.501,90.764 168.268 C 90.764 168.035,91.485 167.845,92.367 167.845 C 93.248 167.845,94.325 167.652,94.761 167.416 C 95.441 167.049,97.625 166.404,98.594 166.286 C 98.761 166.265,99.052 166.095,99.240 165.906 C 99.428 165.718,100.151 165.564,100.847 165.564 C 101.543 165.564,102.239 165.359,102.395 165.108 C 102.550 164.857,103.268 164.652,103.991 164.652 C 104.714 164.652,105.417 164.471,105.554 164.249 C 105.691 164.028,106.932 163.706,108.311 163.533 C 109.690 163.361,110.936 163.029,111.080 162.796 C 111.224 162.563,112.213 162.372,113.277 162.372 C 114.341 162.372,115.415 162.168,115.664 161.918 C 115.914 161.669,117.391 161.332,118.948 161.169 C 120.505 161.007,121.779 160.697,121.779 160.482 C 121.779 160.267,122.280 160.091,122.892 160.091 C 123.504 160.091,124.120 159.906,124.260 159.680 C 124.399 159.454,125.746 159.126,127.252 158.951 C 128.758 158.776,130.105 158.448,130.244 158.222 C 130.384 157.996,131.090 157.811,131.813 157.811 C 132.536 157.811,133.254 157.605,133.409 157.355 C 133.564 157.104,134.488 156.899,135.462 156.899 C 136.436 156.899,137.343 156.720,137.477 156.502 C 137.612 156.284,139.159 155.965,140.914 155.792 C 142.670 155.619,144.226 155.284,144.372 155.048 C 144.518 154.811,145.229 154.618,145.952 154.618 C 146.675 154.618,147.386 154.425,147.532 154.188 C 147.678 153.952,149.234 153.617,150.990 153.444 C 152.746 153.271,154.292 152.952,154.427 152.734 C 154.562 152.516,155.263 152.338,155.986 152.338 C 156.709 152.338,157.428 152.132,157.583 151.881 C 157.738 151.631,158.577 151.425,159.449 151.425 C 160.320 151.425,161.770 151.117,162.670 150.741 C 163.571 150.365,164.989 150.057,165.821 150.057 C 166.654 150.057,167.462 149.852,167.617 149.601 C 167.772 149.350,168.490 149.145,169.213 149.145 C 169.936 149.145,170.645 148.956,170.787 148.725 C 170.930 148.493,172.379 148.162,174.007 147.987 C 175.635 147.813,176.967 147.489,176.967 147.267 C 176.967 147.046,177.662 146.864,178.511 146.864 C 179.360 146.864,180.643 146.558,181.362 146.183 C 182.080 145.808,183.426 145.500,184.352 145.499 C 185.278 145.497,186.162 145.291,186.317 145.040 C 186.472 144.789,187.498 144.584,188.597 144.584 C 189.697 144.584,190.723 144.379,190.878 144.128 C 191.033 143.877,191.722 143.672,192.410 143.672 C 193.098 143.672,193.864 143.468,194.113 143.218 C 194.363 142.969,195.892 142.637,197.511 142.480 C 200.255 142.214,200.394 142.244,199.544 142.919 C 199.042 143.317,198.407 143.649,198.132 143.657 C 197.858 143.665,197.261 144.082,196.807 144.584 C 196.353 145.086,195.738 145.496,195.439 145.496 C 195.140 145.496,194.538 145.892,194.100 146.376 C 193.662 146.860,191.937 147.924,190.266 148.741 C 188.596 149.558,186.418 150.855,185.427 151.624 C 183.545 153.084,183.273 153.256,180.071 155.010 C 178.991 155.602,178.005 156.218,177.879 156.378 C 177.571 156.773,176.035 157.722,174.896 158.220 C 174.384 158.445,173.692 158.957,173.358 159.360 C 173.024 159.762,172.468 160.091,172.122 160.091 C 171.776 160.091,171.494 160.280,171.494 160.511 C 171.494 160.742,170.904 161.061,170.183 161.219 C 169.462 161.377,168.400 162.009,167.823 162.623 C 167.246 163.238,166.513 163.740,166.195 163.740 C 165.877 163.740,165.348 164.109,165.020 164.559 C 164.692 165.009,163.695 165.718,162.804 166.134 C 161.913 166.550,160.814 167.299,160.362 167.798 C 159.910 168.297,158.990 168.826,158.317 168.974 C 157.643 169.122,156.712 169.749,156.248 170.368 C 155.783 170.987,155.148 171.494,154.838 171.494 C 154.528 171.494,154.000 171.823,153.666 172.225 C 153.332 172.628,152.640 173.140,152.128 173.365 C 150.785 173.953,149.488 174.808,148.695 175.630 C 148.315 176.024,147.697 176.488,147.320 176.662 C 146.944 176.835,146.021 177.383,145.268 177.879 C 144.515 178.375,143.592 178.920,143.216 179.090 C 142.839 179.260,141.761 180.084,140.820 180.920 C 139.878 181.756,138.839 182.440,138.510 182.440 C 138.182 182.440,137.310 183.070,136.573 183.840 C 135.837 184.610,134.515 185.573,133.637 185.979 C 132.759 186.386,131.117 187.667,129.989 188.826 C 128.860 189.985,127.215 191.266,126.333 191.674 C 125.451 192.082,124.235 192.942,123.631 193.585 C 123.026 194.228,122.306 194.755,122.030 194.755 C 121.754 194.755,120.659 195.678,119.597 196.807 C 118.534 197.936,117.502 198.860,117.303 198.860 C 117.104 198.860,116.244 199.578,115.393 200.456 C 114.542 201.334,113.626 202.052,113.357 202.052 C 112.797 202.052,103.991 210.773,103.991 211.327 C 103.991 212.070,101.001 215.263,100.299 215.271 C 99.480 215.280,98.062 216.674,98.062 217.468 C 98.062 217.754,97.651 218.719,97.149 219.612 C 96.207 221.290,95.968 222.577,96.598 222.577 C 97.067 222.577,100.798 218.778,100.798 218.301 C 100.798 218.101,101.927 216.835,103.307 215.488 C 104.686 214.141,105.816 212.876,105.816 212.677 C 105.817 212.205,110.120 207.982,110.600 207.982 C 110.803 207.982,111.953 206.956,113.155 205.701 C 114.358 204.447,115.517 203.421,115.731 203.421 C 115.945 203.421,116.922 202.600,117.902 201.596 C 118.882 200.593,119.907 199.772,120.180 199.772 C 120.453 199.772,121.583 198.848,122.691 197.719 C 123.799 196.591,124.929 195.667,125.203 195.667 C 125.477 195.667,126.820 194.681,128.187 193.476 C 129.554 192.271,131.391 190.950,132.269 190.541 C 133.147 190.132,134.573 189.066,135.437 188.171 C 136.302 187.277,137.277 186.545,137.604 186.545 C 137.931 186.545,138.198 186.340,138.198 186.089 C 138.198 185.838,138.470 185.633,138.803 185.633 C 139.136 185.633,139.890 185.120,140.479 184.493 C 141.068 183.865,141.786 183.352,142.075 183.352 C 142.364 183.352,143.082 182.839,143.672 182.212 C 144.261 181.585,145.015 181.072,145.347 181.072 C 145.680 181.072,145.952 180.891,145.952 180.669 C 145.952 180.447,146.311 180.136,146.750 179.977 C 147.919 179.555,149.495 178.585,150.644 177.580 C 151.199 177.094,152.269 176.399,153.022 176.034 C 153.774 175.669,154.764 174.909,155.221 174.344 C 155.678 173.780,156.320 173.318,156.648 173.318 C 156.975 173.318,157.516 172.989,157.850 172.586 C 158.184 172.184,158.876 171.671,159.388 171.447 C 160.845 170.810,162.110 169.950,162.508 169.327 C 162.709 169.014,163.139 168.757,163.464 168.757 C 163.789 168.757,164.416 168.358,164.857 167.871 C 165.298 167.383,166.225 166.860,166.917 166.708 C 167.609 166.556,168.616 165.925,169.154 165.306 C 169.693 164.687,171.215 163.685,172.538 163.080 C 173.860 162.475,175.327 161.555,175.797 161.036 C 176.268 160.516,176.928 160.091,177.266 160.091 C 177.603 160.091,177.879 159.935,177.879 159.743 C 177.879 159.373,178.446 159.032,181.460 157.589 C 182.501 157.091,183.352 156.532,183.352 156.346 C 183.352 156.161,184.225 155.590,185.291 155.077 C 187.703 153.918,188.843 153.215,189.738 152.338 C 190.582 151.509,191.663 150.826,194.071 149.601 C 196.012 148.613,197.573 147.695,197.948 147.320 C 198.320 146.948,199.890 146.031,201.596 145.190 C 202.474 144.757,203.295 144.275,203.421 144.117 C 203.546 143.960,204.367 143.438,205.245 142.958 C 206.123 142.478,207.176 141.817,207.585 141.489 C 209.043 140.319,211.844 139.111,213.095 139.111 C 213.795 139.111,214.367 138.932,214.367 138.713 C 214.367 138.495,216.212 138.172,218.466 137.995 C 220.720 137.819,222.682 137.485,222.826 137.252 C 222.969 137.020,223.678 136.830,224.401 136.830 C 225.124 136.830,225.843 136.625,225.998 136.374 C 226.153 136.123,226.871 135.918,227.594 135.918 C 228.317 135.918,229.028 135.725,229.174 135.488 C 229.320 135.252,230.876 134.917,232.632 134.744 C 234.388 134.571,235.934 134.251,236.069 134.034 C 236.204 133.816,237.111 133.637,238.084 133.637 C 239.058 133.637,239.965 133.459,240.100 133.241 C 240.234 133.023,241.786 132.703,243.547 132.529 C 245.309 132.356,246.750 132.021,246.750 131.785 C 246.750 131.550,247.457 131.357,248.320 131.357 C 249.183 131.357,249.999 131.179,250.134 130.961 C 250.269 130.743,251.815 130.423,253.571 130.250 C 255.327 130.077,256.883 129.742,257.029 129.506 C 257.175 129.270,258.302 129.076,259.534 129.076 C 260.901 129.076,262.384 128.733,263.341 128.196 C 264.215 127.705,266.346 127.174,268.154 126.996 C 269.939 126.820,271.510 126.498,271.645 126.280 C 271.779 126.062,272.657 125.884,273.596 125.884 C 274.534 125.884,275.497 125.699,275.735 125.474 C 275.974 125.249,277.066 124.985,278.162 124.887 L 280.155 124.709 279.843 128.603 C 279.671 130.745,279.338 132.692,279.104 132.930 C 278.869 133.169,278.677 133.897,278.677 134.550 C 278.677 135.202,278.450 135.963,278.172 136.241 C 277.894 136.519,277.558 138.105,277.424 139.765 C 277.291 141.425,277.005 142.893,276.789 143.027 C 276.574 143.160,276.397 143.832,276.397 144.520 C 276.397 145.207,276.180 145.987,275.914 146.252 C 275.649 146.517,275.325 147.944,275.195 149.422 C 274.975 151.917,274.628 153.174,273.607 155.182 C 273.385 155.618,273.204 156.375,273.204 156.865 C 273.204 157.356,273.026 157.867,272.808 158.002 C 272.590 158.136,272.277 159.269,272.111 160.518 C 271.945 161.768,271.610 162.914,271.366 163.064 C 271.123 163.215,270.924 163.839,270.924 164.451 C 270.924 165.063,270.742 165.564,270.519 165.564 C 270.297 165.564,269.977 166.483,269.809 167.606 C 269.640 168.729,269.309 169.768,269.073 169.914 C 268.836 170.060,268.643 170.862,268.643 171.697 C 268.643 172.531,268.336 173.802,267.962 174.520 C 267.587 175.239,267.279 176.174,267.278 176.598 C 267.276 177.022,267.070 177.496,266.819 177.651 C 266.568 177.806,266.361 178.383,266.359 178.932 C 266.355 180.204,264.589 181.119,263.484 180.422 C 262.930 180.073,262.465 180.096,261.809 180.505 C 261.253 180.853,259.235 181.072,256.590 181.072 C 254.218 181.072,252.167 181.250,252.033 181.468 C 251.898 181.686,250.558 182.003,249.055 182.173 C 247.552 182.343,246.201 182.678,246.053 182.917 C 245.905 183.157,245.193 183.352,244.470 183.352 C 243.747 183.352,243.028 183.558,242.873 183.808 C 242.718 184.059,242.244 184.266,241.820 184.267 C 241.396 184.269,240.461 184.577,239.743 184.951 C 239.024 185.326,238.049 185.633,237.576 185.633 C 237.103 185.633,236.716 185.838,236.716 186.089 C 236.716 186.340,236.118 186.545,235.387 186.545 C 234.656 186.545,232.860 187.173,231.396 187.941 C 227.641 189.910,227.000 190.321,226.346 191.184 C 226.028 191.603,225.179 192.076,224.458 192.234 C 223.737 192.392,222.676 193.024,222.099 193.638 C 221.522 194.252,220.778 194.755,220.445 194.755 C 220.112 194.755,219.840 194.910,219.840 195.100 C 219.840 195.289,219.173 195.726,218.358 196.070 C 216.784 196.734,206.613 206.481,206.613 207.325 C 206.613 207.599,206.100 208.305,205.473 208.894 C 204.846 209.483,204.333 210.162,204.333 210.402 C 204.333 210.643,203.974 211.174,203.535 211.583 C 202.295 212.739,197.030 222.613,197.034 223.775 C 197.035 224.058,196.727 224.545,196.351 224.857 C 195.975 225.170,195.667 225.913,195.667 226.510 C 195.667 227.106,195.471 227.594,195.232 227.594 C 194.992 227.594,194.655 228.364,194.482 229.304 C 194.309 230.245,194.043 231.117,193.891 231.243 C 193.232 231.786,192.474 233.599,192.474 234.631 C 192.474 235.246,192.288 235.865,192.061 236.006 C 191.834 236.146,191.501 237.330,191.321 238.637 C 191.141 239.944,190.838 241.329,190.647 241.715 C 189.157 244.731,189.060 245.312,189.057 251.163 C 189.055 254.931,189.238 257.398,189.533 257.599 C 189.797 257.778,190.358 258.666,190.779 259.572 C 192.089 262.389,192.170 262.411,200.351 262.137 L 207.754 261.889 212.315 259.569 C 214.823 258.292,217.057 257.246,217.278 257.244 C 217.500 257.242,218.016 256.881,218.425 256.442 C 219.275 255.530,220.303 254.862,222.577 253.744 C 223.455 253.313,224.625 252.486,225.178 251.907 C 225.730 251.329,226.361 250.855,226.581 250.855 C 226.800 250.855,227.461 250.342,228.050 249.715 C 228.639 249.088,229.346 248.575,229.621 248.575 C 230.209 248.575,238.997 239.849,238.997 239.265 C 238.997 239.045,240.616 237.179,242.595 235.117 C 244.804 232.816,246.311 230.838,246.496 229.995 C 246.662 229.239,247.300 228.149,247.914 227.572 C 248.528 226.995,249.031 226.251,249.031 225.918 C 249.031 225.586,249.198 225.314,249.402 225.314 C 249.606 225.314,250.058 224.585,250.408 223.695 C 250.757 222.805,251.308 221.856,251.633 221.587 C 251.958 221.317,252.223 220.743,252.223 220.311 C 252.223 219.879,252.634 219.154,253.136 218.700 C 253.637 218.246,254.048 217.703,254.048 217.492 C 254.048 216.766,255.632 213.455,255.980 213.455 C 256.172 213.455,256.328 213.251,256.328 213.002 C 256.328 212.223,257.894 208.894,258.260 208.894 C 258.452 208.894,258.615 208.432,258.623 207.868 C 258.631 207.303,258.939 206.443,259.308 205.956 C 259.676 205.469,259.977 204.707,259.977 204.262 C 259.977 203.817,260.490 202.534,261.117 201.411 C 261.745 200.287,262.258 198.741,262.258 197.974 C 262.258 197.207,262.412 196.578,262.600 196.576 C 263.043 196.571,264.082 194.333,264.082 193.383 C 264.082 192.979,264.383 192.250,264.752 191.763 C 265.120 191.276,265.428 190.499,265.436 190.036 C 265.444 189.573,265.847 188.637,266.332 187.956 C 266.817 187.275,267.359 186.139,267.537 185.431 L 267.860 184.146 271.001 184.437 C 272.729 184.598,274.496 184.915,274.928 185.143 C 275.359 185.370,276.431 185.887,277.309 186.291 C 279.013 187.076,280.585 187.981,280.958 188.393 C 281.083 188.532,281.915 188.984,282.806 189.398 C 283.698 189.812,284.807 190.571,285.271 191.085 C 285.736 191.598,286.354 192.018,286.644 192.018 C 286.935 192.018,287.762 192.634,288.483 193.387 C 289.204 194.139,290.064 194.755,290.393 194.755 C 290.723 194.755,290.992 194.960,290.992 195.211 C 290.992 195.462,291.268 195.667,291.605 195.667 C 291.943 195.667,292.574 196.059,293.007 196.538 C 293.441 197.017,294.333 197.544,294.989 197.709 C 295.646 197.874,296.514 198.390,296.918 198.856 C 297.323 199.323,299.274 200.543,301.255 201.568 C 303.235 202.593,304.969 203.593,305.107 203.792 C 305.428 204.252,308.529 205.701,309.191 205.701 C 309.467 205.701,309.694 205.855,309.696 206.043 C 309.702 206.685,312.196 207.556,314.823 207.834 C 316.266 207.987,317.446 208.288,317.446 208.503 C 317.446 208.718,318.255 208.894,319.243 208.894 C 320.232 208.894,321.168 209.099,321.323 209.350 C 321.478 209.601,323.132 209.806,324.998 209.806 C 326.957 209.806,328.392 209.613,328.392 209.350 C 328.392 209.099,328.738 208.894,329.160 208.894 C 330.743 208.894,333.865 207.016,333.865 206.065 C 333.865 205.085,330.143 205.187,329.099 206.195 C 328.551 206.724,321.688 206.748,321.362 206.222 C 321.229 206.006,319.766 205.691,318.111 205.522 C 315.464 205.250,313.616 204.661,312.885 203.853 C 312.675 203.622,310.701 202.701,307.868 201.513 C 307.241 201.250,306.420 200.859,306.043 200.644 C 305.667 200.429,304.641 199.899,303.763 199.466 C 302.885 199.033,302.064 198.537,301.938 198.363 C 301.813 198.190,300.863 197.607,299.827 197.068 C 298.791 196.529,297.579 195.686,297.134 195.194 C 296.688 194.701,296.093 194.299,295.811 194.299 C 295.529 194.299,295.008 193.896,294.653 193.403 C 294.298 192.911,293.457 192.387,292.785 192.239 C 292.113 192.092,291.091 191.468,290.514 190.854 C 289.937 190.240,289.269 189.738,289.029 189.738 C 288.790 189.738,287.748 189.009,286.714 188.118 C 285.681 187.228,284.629 186.349,284.379 186.165 C 283.581 185.581,280.611 184.265,280.091 184.265 C 279.815 184.265,279.590 184.059,279.590 183.808 C 279.590 183.558,279.202 183.352,278.729 183.352 C 278.256 183.352,277.281 183.046,276.563 182.671 C 275.844 182.296,274.602 181.988,273.801 181.987 C 273.001 181.985,272.219 181.779,272.064 181.528 C 271.909 181.277,271.076 181.072,270.213 181.072 C 268.699 181.072,268.155 180.515,269.099 179.932 C 269.350 179.777,269.557 179.303,269.558 178.878 C 269.560 178.454,269.868 177.519,270.242 176.801 C 270.617 176.082,270.924 175.131,270.924 174.686 C 270.924 174.242,271.230 173.291,271.605 172.572 C 271.980 171.854,272.288 170.701,272.289 170.011 C 272.291 169.322,272.497 168.757,272.748 168.757 C 272.999 168.757,273.204 168.353,273.204 167.859 C 273.204 167.365,273.585 166.282,274.051 165.453 C 274.517 164.623,275.044 162.773,275.223 161.341 C 275.402 159.909,275.739 158.619,275.973 158.475 C 276.206 158.331,276.397 157.621,276.397 156.899 C 276.397 156.176,276.578 155.472,276.800 155.335 C 277.021 155.198,277.344 153.955,277.517 152.572 C 277.689 151.189,278.021 150.057,278.254 150.057 C 278.487 150.057,278.677 149.339,278.677 148.461 C 278.677 147.583,278.858 146.864,279.080 146.864 C 279.301 146.864,279.627 145.325,279.803 143.444 C 279.979 141.562,280.311 140.023,280.541 140.023 C 280.770 140.023,280.958 139.304,280.958 138.426 C 280.958 137.548,281.163 136.830,281.414 136.830 C 281.665 136.830,281.870 135.924,281.870 134.816 C 281.870 133.708,282.065 132.733,282.304 132.649 C 282.543 132.566,282.871 131.060,283.034 129.304 C 283.458 124.734,284.018 123.603,285.858 123.603 C 286.675 123.603,287.343 123.422,287.343 123.200 C 287.343 122.979,288.675 122.655,290.303 122.480 C 291.931 122.306,293.380 121.974,293.523 121.743 C 293.666 121.512,294.591 121.323,295.580 121.323 C 296.569 121.323,297.377 121.117,297.377 120.867 C 297.377 120.616,298.186 120.410,299.175 120.410 C 300.164 120.410,301.083 120.232,301.217 120.014 C 301.352 119.796,303.314 119.473,305.577 119.296 C 307.840 119.119,309.692 118.784,309.692 118.552 C 309.692 118.320,310.472 118.130,311.425 118.130 C 312.379 118.130,313.353 117.935,313.592 117.698 C 313.830 117.460,315.462 117.136,317.218 116.979 C 318.974 116.821,320.872 116.503,321.437 116.271 C 322.001 116.039,322.925 115.656,323.489 115.419 C 324.054 115.182,326.210 114.852,328.281 114.687 C 330.352 114.521,332.160 114.202,332.299 113.977 C 332.437 113.753,333.656 113.569,335.006 113.569 C 336.356 113.569,337.587 113.364,337.742 113.113 C 337.897 112.862,338.616 112.657,339.339 112.657 C 340.062 112.657,340.761 112.481,340.894 112.267 C 341.026 112.053,343.040 111.734,345.368 111.559 C 347.696 111.383,349.796 111.046,350.034 110.808 C 350.273 110.571,351.235 110.376,352.174 110.376 C 353.112 110.376,353.995 110.190,354.136 109.963 C 354.276 109.735,356.344 109.403,358.730 109.224 C 361.117 109.045,363.181 108.718,363.318 108.497 C 363.454 108.276,364.580 108.096,365.819 108.096 C 367.059 108.096,368.073 107.920,368.073 107.705 C 368.073 107.490,370.177 107.170,372.748 106.994 C 375.319 106.818,377.618 106.481,377.856 106.245 C 378.095 106.008,379.365 105.815,380.680 105.815 C 381.995 105.815,383.197 105.610,383.352 105.359 C 383.507 105.108,384.854 104.903,386.344 104.903 C 387.834 104.903,389.054 104.710,389.054 104.475 C 389.054 104.239,389.823 103.982,390.764 103.904 L 392.474 103.763 392.474 101.482 C 392.474 99.365,392.389 99.192,391.286 99.064 C 390.633 98.988,389.413 98.218,388.574 97.354 C 387.736 96.489,386.858 95.781,386.623 95.781 C 386.388 95.781,385.794 95.319,385.303 94.755 C 384.256 93.552,364.573 93.169,363.413 94.329 C 363.116 94.626,362.094 94.869,361.140 94.869 C 360.187 94.869,359.407 95.074,359.407 95.325 C 359.407 95.576,358.586 95.781,357.583 95.781 C 356.372 95.781,355.758 95.578,355.758 95.176 C 355.758 93.603,351.579 91.218,350.263 92.040 C 349.780 92.342,349.003 92.588,348.537 92.588 C 347.351 92.588,344.811 93.875,343.375 95.203 C 341.882 96.584,340.779 96.418,339.809 94.668 C 338.222 91.802,326.818 89.875,324.597 92.097 C 324.326 92.367,323.029 92.588,321.714 92.588 C 320.400 92.588,319.214 92.767,319.079 92.985 C 318.944 93.203,316.982 93.526,314.719 93.703 C 312.456 93.880,310.604 94.215,310.604 94.447 C 310.604 94.679,309.883 94.869,309.002 94.869 C 308.120 94.869,307.043 95.064,306.607 95.303 C 306.172 95.541,304.635 95.864,303.193 96.020 C 301.750 96.175,300.570 96.493,300.570 96.726 C 300.570 96.959,299.761 97.149,298.773 97.149 C 297.784 97.149,296.848 97.355,296.693 97.605 C 296.538 97.856,295.722 98.062,294.880 98.062 C 294.038 98.062,293.279 98.269,293.195 98.522 C 293.111 98.776,291.913 99.032,290.534 99.092 C 287.936 99.206,286.803 97.963,288.217 96.549 C 288.489 96.277,288.712 94.762,288.712 93.181 C 288.712 91.570,288.912 90.308,289.168 90.308 C 289.430 90.308,289.624 88.894,289.624 86.978 C 289.624 85.147,289.816 83.454,290.051 83.216 C 290.286 82.977,290.624 80.467,290.801 77.637 C 290.978 74.808,291.299 72.384,291.514 72.251 C 291.729 72.119,291.904 71.201,291.904 70.213 C 291.904 69.224,292.092 68.415,292.321 68.415 C 292.551 68.415,292.887 66.832,293.068 64.896 C 293.250 62.961,293.748 60.755,294.176 59.993 C 294.603 59.232,295.101 57.303,295.282 55.706 C 295.462 54.110,295.802 52.417,296.038 51.944 C 296.273 51.470,296.670 50.676,296.921 50.177 C 297.172 49.679,297.377 48.858,297.377 48.353 C 297.377 47.848,297.556 47.434,297.775 47.434 C 297.994 47.434,298.304 46.613,298.465 45.610 C 298.625 44.607,298.935 43.786,299.154 43.786 C 299.549 43.786,300.005 42.737,300.526 40.631 C 301.026 38.605,301.877 39.020,302.026 41.362 C 302.212 44.272,304.219 45.058,304.219 42.221 C 304.219 41.326,304.424 40.593,304.675 40.593 C 304.926 40.593,305.131 39.875,305.131 38.997 C 305.131 38.119,304.926 37.400,304.675 37.400 C 304.424 37.400,304.219 36.928,304.219 36.351 C 304.219 34.193,300.316 33.108,299.790 35.120 M96.237 42.761 C 96.237 43.148,95.555 44.306,94.721 45.335 C 93.888 46.364,93.059 47.514,92.879 47.891 C 91.857 50.032,89.442 53.419,88.388 54.188 C 87.939 54.516,87.571 54.998,87.571 55.259 C 87.571 55.786,86.209 58.805,85.648 59.521 C 85.451 59.772,84.898 60.490,84.418 61.117 C 83.938 61.745,83.390 62.103,83.200 61.914 C 83.010 61.725,83.278 61.109,83.797 60.546 C 84.315 59.982,84.877 58.671,85.046 57.632 C 85.227 56.522,85.811 55.315,86.463 54.702 C 87.072 54.129,87.571 53.325,87.571 52.914 C 87.571 52.503,87.937 51.770,88.384 51.283 C 88.832 50.797,89.556 49.681,89.993 48.803 C 91.250 46.282,91.803 45.489,93.387 43.934 C 94.202 43.134,94.869 42.266,94.869 42.006 C 94.869 41.746,95.177 41.652,95.553 41.796 C 95.929 41.941,96.237 42.375,96.237 42.761 M335.062 95.097 C 337.139 96.132,339.339 98.054,339.339 98.834 C 339.339 100.546,343.240 101.988,343.725 100.456 C 344.573 97.781,345.599 96.466,347.186 96.019 C 348.097 95.763,348.994 95.401,349.180 95.215 C 349.365 95.029,349.741 95.061,350.015 95.285 C 350.289 95.510,351.026 95.765,351.653 95.851 C 352.895 96.023,353.244 98.728,352.116 99.426 C 351.335 99.908,351.752 102.678,352.693 103.261 C 353.268 103.617,353.599 103.621,353.833 103.273 C 354.014 103.004,354.495 102.662,354.903 102.512 C 355.310 102.362,355.781 101.505,355.949 100.607 C 356.201 99.267,356.454 98.974,357.361 98.974 C 357.970 98.974,359.198 98.563,360.091 98.062 C 361.271 97.399,362.561 97.149,364.803 97.149 C 366.654 97.149,368.117 96.923,368.457 96.583 C 368.908 96.132,369.109 96.155,369.446 96.697 C 369.806 97.275,370.018 97.285,370.854 96.767 C 371.969 96.076,378.950 95.882,379.414 96.529 C 379.573 96.752,380.730 97.436,381.984 98.049 C 386.069 100.048,387.013 101.710,384.063 101.710 C 383.075 101.710,382.139 101.916,381.984 102.166 C 381.829 102.417,380.688 102.623,379.449 102.623 C 378.209 102.623,377.195 102.798,377.195 103.013 C 377.195 103.228,375.091 103.548,372.520 103.724 C 369.949 103.900,367.650 104.238,367.412 104.474 C 367.173 104.710,365.788 104.903,364.333 104.903 C 362.873 104.903,361.688 105.108,361.688 105.359 C 361.688 105.610,360.702 105.815,359.498 105.815 C 358.294 105.815,357.105 106.020,356.855 106.269 C 356.605 106.519,354.820 106.857,352.887 107.020 C 350.954 107.184,349.373 107.493,349.373 107.707 C 349.373 107.921,348.564 108.096,347.575 108.096 C 346.587 108.096,345.668 108.274,345.533 108.492 C 345.398 108.710,343.439 109.033,341.179 109.210 C 338.919 109.387,336.953 109.722,336.809 109.954 C 336.666 110.186,335.649 110.376,334.550 110.376 C 333.450 110.376,332.443 110.552,332.310 110.766 C 332.178 110.980,330.165 111.299,327.836 111.474 C 325.508 111.650,323.408 111.987,323.170 112.225 C 322.932 112.462,321.969 112.657,321.030 112.657 C 320.092 112.657,319.197 112.862,319.042 113.113 C 318.887 113.364,318.169 113.569,317.446 113.569 C 316.723 113.569,316.021 113.747,315.887 113.965 C 315.752 114.183,314.205 114.503,312.449 114.676 C 310.694 114.849,309.138 115.184,308.992 115.420 C 308.846 115.656,307.712 115.849,306.473 115.849 C 305.233 115.849,304.219 116.037,304.219 116.267 C 304.219 116.496,302.680 116.828,300.798 117.004 C 298.917 117.181,297.377 117.506,297.377 117.727 C 297.377 117.949,296.569 118.130,295.580 118.130 C 294.591 118.130,293.674 118.306,293.541 118.521 C 293.408 118.736,292.135 119.032,290.712 119.179 C 289.290 119.326,287.908 119.663,287.643 119.928 C 287.378 120.193,286.671 120.410,286.073 120.410 C 284.939 120.410,284.899 114.110,286.025 112.908 C 286.248 112.669,286.431 111.399,286.431 110.084 C 286.431 108.769,286.636 107.567,286.887 107.412 C 287.138 107.257,287.343 106.321,287.343 105.332 C 287.343 104.039,287.535 103.535,288.027 103.535 C 288.404 103.535,288.712 103.330,288.712 103.079 C 288.712 102.828,289.184 102.623,289.761 102.623 C 290.338 102.623,291.020 102.412,291.278 102.154 C 291.535 101.897,292.808 101.560,294.106 101.407 C 295.403 101.253,296.465 100.951,296.465 100.735 C 296.465 100.519,296.966 100.342,297.579 100.342 C 298.191 100.342,298.802 100.164,298.937 99.946 C 299.072 99.728,300.828 99.406,302.841 99.230 C 304.853 99.055,306.499 98.720,306.499 98.486 C 306.499 98.253,307.218 98.062,308.096 98.062 C 308.974 98.062,309.692 97.856,309.692 97.605 C 309.692 97.355,310.398 97.149,311.262 97.149 C 312.125 97.149,312.943 96.969,313.079 96.748 C 313.216 96.527,315.074 96.201,317.209 96.023 C 319.344 95.845,321.207 95.513,321.348 95.284 C 321.489 95.056,323.222 94.869,325.200 94.869 C 327.177 94.869,328.921 94.664,329.076 94.413 C 329.591 93.580,332.742 93.940,335.062 95.097 M284.151 105.560 C 284.151 105.922,283.972 106.328,283.754 106.463 C 283.536 106.597,283.209 108.611,283.028 110.936 C 282.847 113.262,282.526 115.376,282.314 115.633 C 282.102 115.890,281.864 117.105,281.785 118.333 C 281.608 121.099,280.373 121.947,275.815 122.435 C 274.133 122.615,272.641 122.952,272.498 123.183 C 272.355 123.414,271.224 123.603,269.984 123.603 C 268.745 123.603,267.731 123.788,267.731 124.013 C 267.731 124.238,266.293 124.567,264.536 124.744 C 262.779 124.920,261.228 125.249,261.089 125.474 C 260.949 125.699,260.039 125.884,259.065 125.884 C 258.091 125.884,257.184 126.062,257.050 126.280 C 256.915 126.498,255.368 126.818,253.612 126.991 C 251.857 127.164,250.301 127.498,250.155 127.735 C 250.009 127.971,249.388 128.164,248.776 128.164 C 248.163 128.164,247.662 128.369,247.662 128.620 C 247.662 128.871,246.854 129.076,245.865 129.076 C 244.876 129.076,243.957 129.255,243.823 129.473 C 243.688 129.690,242.141 130.010,240.385 130.183 C 238.630 130.356,237.074 130.691,236.928 130.927 C 236.782 131.164,236.071 131.357,235.348 131.357 C 234.625 131.357,233.920 131.541,233.781 131.765 C 233.642 131.990,231.884 132.319,229.875 132.497 C 227.865 132.675,226.107 133.004,225.968 133.229 C 225.829 133.454,225.124 133.637,224.401 133.637 C 223.678 133.637,222.960 133.843,222.805 134.094 C 222.650 134.344,222.125 134.550,221.638 134.550 C 221.151 134.550,220.753 134.344,220.753 134.094 C 220.753 133.843,220.966 133.637,221.228 133.637 C 221.489 133.637,221.951 133.435,222.254 133.188 C 224.723 131.175,225.719 130.445,225.995 130.445 C 226.436 130.445,229.593 128.960,229.875 128.620 C 230.000 128.469,230.821 127.991,231.699 127.558 C 233.663 126.589,235.045 125.754,235.352 125.350 C 235.480 125.181,236.132 124.906,236.801 124.739 C 237.470 124.571,238.372 124.041,238.806 123.562 C 239.239 123.083,239.961 122.691,240.409 122.691 C 240.857 122.691,241.334 122.511,241.470 122.291 C 241.797 121.763,247.130 119.042,247.839 119.042 C 248.647 119.042,250.847 117.960,250.852 117.560 C 250.854 117.372,251.059 117.218,251.308 117.218 C 252.087 117.218,255.416 115.652,255.416 115.286 C 255.416 115.094,255.825 114.937,256.325 114.937 C 257.449 114.937,260.889 113.481,260.889 113.005 C 260.889 112.814,261.269 112.657,261.734 112.657 C 262.198 112.657,263.543 112.144,264.722 111.517 C 265.902 110.889,267.215 110.370,267.641 110.362 C 268.067 110.354,268.813 110.046,269.300 109.678 C 269.787 109.309,270.648 109.008,271.212 109.008 C 271.776 109.008,272.365 108.803,272.520 108.552 C 272.675 108.301,273.380 108.096,274.087 108.096 C 274.794 108.096,275.628 107.788,275.941 107.412 C 276.253 107.035,276.882 106.727,277.338 106.727 C 277.794 106.727,278.294 106.522,278.449 106.271 C 278.604 106.021,279.437 105.815,280.301 105.815 C 281.164 105.815,281.870 105.610,281.870 105.359 C 281.870 105.108,282.383 104.903,283.010 104.903 C 283.699 104.903,284.151 105.163,284.151 105.560 M225.998 151.881 C 225.843 152.132,225.256 152.338,224.693 152.338 C 220.318 152.338,220.073 155.801,224.281 158.153 C 225.723 158.958,225.770 158.921,225.770 156.978 C 225.770 155.707,226.079 154.943,226.910 154.162 C 228.288 152.867,228.423 151.425,227.165 151.425 C 226.678 151.425,226.153 151.631,225.998 151.881 M49.373 156.293 C 49.892 156.601,49.781 159.842,49.233 160.391 C 48.967 160.656,48.630 162.038,48.483 163.460 C 48.336 164.883,48.040 166.156,47.825 166.289 C 47.610 166.422,47.434 167.322,47.434 168.290 C 47.434 169.258,47.209 170.125,46.933 170.216 C 46.658 170.308,46.325 171.403,46.193 172.649 C 45.891 175.500,44.657 176.967,42.560 176.967 C 41.102 176.967,40.714 177.088,38.458 178.248 C 37.911 178.529,36.064 178.885,34.353 179.038 C 31.471 179.296,30.219 179.627,28.170 180.669 C 27.735 180.891,26.669 181.072,25.803 181.072 C 24.936 181.072,24.100 181.277,23.945 181.528 C 23.532 182.196,15.249 182.101,14.019 181.414 C 12.371 180.493,10.946 179.134,10.946 178.484 C 10.946 178.151,10.745 177.879,10.500 177.879 C 10.254 177.879,10.457 177.212,10.952 176.397 C 11.446 175.582,11.995 174.607,12.171 174.230 C 12.625 173.262,13.533 172.406,14.107 172.406 C 14.375 172.406,14.595 172.252,14.596 172.064 C 14.597 171.528,16.704 169.213,17.191 169.213 C 17.432 169.213,18.095 168.717,18.664 168.112 C 19.233 167.506,20.217 166.880,20.850 166.721 C 21.484 166.562,22.747 165.839,23.658 165.115 C 24.568 164.390,25.870 163.662,26.549 163.496 C 27.229 163.330,28.027 162.903,28.323 162.546 C 28.997 161.734,37.005 157.811,37.989 157.811 C 38.388 157.811,38.842 157.605,38.997 157.355 C 39.152 157.104,39.841 156.899,40.529 156.899 C 41.216 156.899,41.974 156.713,42.212 156.487 C 43.107 155.636,48.040 155.503,49.373 156.293 M56.442 160.205 C 57.007 160.731,57.469 161.435,57.469 161.767 C 57.469 162.100,57.651 162.372,57.873 162.372 C 58.095 162.372,58.415 163.291,58.583 164.414 C 58.752 165.537,59.083 166.575,59.319 166.721 C 59.556 166.867,59.749 167.989,59.749 169.213 C 59.749 170.438,59.956 171.568,60.209 171.724 C 61.005 172.216,59.449 173.318,57.957 173.318 C 57.187 173.318,56.556 173.509,56.556 173.741 C 56.556 173.974,55.376 174.292,53.934 174.448 C 52.491 174.604,50.944 174.933,50.495 175.180 C 50.045 175.427,49.481 175.508,49.240 175.359 C 48.661 175.001,48.676 173.318,49.259 173.318 C 49.510 173.318,49.715 172.817,49.715 172.205 C 49.715 171.592,49.893 170.981,50.111 170.847 C 50.329 170.712,50.649 169.165,50.822 167.409 C 50.995 165.654,51.330 164.098,51.566 163.952 C 51.802 163.806,51.995 162.877,51.995 161.889 C 51.995 160.900,52.201 160.091,52.452 160.091 C 52.702 160.091,52.908 159.761,52.908 159.358 C 52.908 158.375,55.026 158.883,56.442 160.205 M188.740 161.776 C 187.815 162.208,186.939 162.878,186.794 163.265 C 186.315 164.542,185.302 166.075,183.968 167.540 C 183.245 168.335,182.261 169.704,181.783 170.582 C 181.304 171.460,180.784 172.281,180.626 172.406 C 179.286 173.474,178.284 178.999,179.011 181.315 C 179.365 182.442,182.067 183.789,182.338 182.974 C 182.436 182.680,182.756 182.433,183.048 182.425 C 184.458 182.384,188.437 179.937,190.625 177.765 C 192.235 176.168,193.387 176.120,193.387 177.651 C 193.387 178.278,193.597 178.791,193.854 178.791 C 194.111 178.791,194.516 179.304,194.755 179.932 C 194.993 180.559,195.501 181.072,195.884 181.072 C 196.266 181.072,196.579 181.277,196.579 181.528 C 196.579 181.779,196.978 181.984,197.465 181.984 C 197.951 181.984,198.477 181.779,198.632 181.528 C 198.787 181.277,199.415 181.072,200.027 181.072 C 200.639 181.072,201.142 180.918,201.144 180.730 C 201.148 180.325,203.352 179.247,204.175 179.247 C 204.490 179.247,205.261 178.734,205.888 178.107 C 206.515 177.480,207.180 176.967,207.366 176.967 C 207.552 176.967,208.228 176.479,208.869 175.884 C 209.510 175.288,210.650 174.604,211.403 174.365 C 212.155 174.126,212.976 173.536,213.227 173.054 C 214.240 171.109,214.415 170.966,215.092 171.527 C 215.446 171.821,215.735 172.411,215.735 172.838 C 215.735 174.912,221.732 176.879,222.797 175.155 C 222.948 174.911,223.833 174.354,224.763 173.918 C 227.926 172.434,228.552 171.038,226.054 171.038 C 225.206 171.038,224.258 171.345,223.945 171.722 C 222.896 172.985,218.928 172.646,218.928 171.293 C 218.928 170.680,218.751 170.070,218.534 169.935 C 218.317 169.801,218.029 168.871,217.895 167.869 C 217.476 164.751,214.367 164.254,214.367 167.304 C 214.367 167.602,214.162 167.845,213.911 167.845 C 213.660 167.845,213.455 168.111,213.455 168.437 C 213.455 169.176,210.192 172.406,209.445 172.406 C 209.142 172.406,208.894 172.567,208.894 172.764 C 208.894 172.960,208.227 173.509,207.412 173.984 C 206.596 174.458,205.827 174.975,205.701 175.132 C 205.370 175.548,202.230 176.967,201.641 176.967 C 201.366 176.967,201.140 177.172,201.140 177.423 C 201.140 177.674,200.105 177.879,198.841 177.879 L 196.541 177.879 196.674 174.344 C 196.793 171.181,196.915 170.762,197.834 170.359 C 198.398 170.112,198.860 169.675,198.860 169.389 C 198.860 169.103,199.168 168.613,199.544 168.301 C 203.742 164.817,194.358 159.149,188.740 161.776 M195.667 165.108 C 195.667 165.359,195.462 165.564,195.211 165.564 C 194.960 165.564,194.755 165.790,194.755 166.066 C 194.755 166.772,192.529 171.776,191.436 173.527 C 190.551 174.944,190.070 175.356,188.369 176.156 C 187.491 176.569,186.066 177.639,185.201 178.533 C 181.236 182.636,179.798 177.859,183.631 173.318 C 184.160 172.691,184.877 171.511,185.224 170.696 C 185.571 169.880,186.016 169.213,186.212 169.213 C 186.407 169.213,186.763 168.700,187.001 168.073 C 187.240 167.446,187.753 166.933,188.141 166.933 C 188.530 166.933,189.043 166.420,189.282 165.792 C 189.736 164.596,195.667 163.961,195.667 165.108 M60.296 177.058 C 59.936 177.419,59.749 179.353,59.749 182.732 C 59.749 185.552,59.573 187.969,59.357 188.102 C 59.142 188.235,58.860 190.725,58.732 193.634 C 58.599 196.639,58.276 199.147,57.984 199.440 C 57.700 199.723,57.469 200.693,57.469 201.596 C 57.469 202.499,57.274 203.433,57.037 203.672 C 56.799 203.910,56.461 206.010,56.286 208.338 C 56.111 210.666,55.792 212.679,55.578 212.812 C 55.363 212.944,55.188 214.050,55.188 215.268 C 55.188 216.557,54.964 217.558,54.653 217.662 C 54.348 217.764,54.033 219.101,53.920 220.779 C 53.810 222.395,53.538 223.912,53.314 224.151 C 53.091 224.389,52.908 225.557,52.908 226.746 C 52.908 227.935,52.702 229.035,52.452 229.190 C 52.201 229.345,51.995 230.372,51.995 231.471 C 51.995 232.570,51.821 233.577,51.608 233.709 C 51.394 233.841,51.089 235.494,50.930 237.381 C 50.770 239.269,50.455 241.175,50.230 241.616 C 49.322 243.395,48.854 244.787,48.579 246.522 C 48.255 248.571,47.371 250.855,46.903 250.855 C 46.734 250.855,46.464 251.522,46.304 252.338 C 45.618 255.835,44.242 257.001,44.242 254.086 C 44.242 253.063,43.998 252.218,43.672 252.109 C 42.884 251.845,42.931 203.637,43.720 202.848 C 44.007 202.561,44.242 201.456,44.242 200.392 C 44.242 199.328,44.447 198.331,44.698 198.176 C 44.949 198.021,45.154 196.674,45.154 195.184 C 45.154 193.694,45.345 192.474,45.579 192.474 C 45.812 192.474,46.147 190.828,46.323 188.816 C 46.498 186.803,46.820 185.046,47.038 184.912 C 47.256 184.777,47.434 183.758,47.434 182.646 C 47.434 180.337,48.470 178.791,50.017 178.791 C 50.574 178.791,51.156 178.586,51.311 178.335 C 51.466 178.084,52.156 177.879,52.843 177.879 C 53.531 177.879,54.288 177.694,54.527 177.467 C 55.539 176.505,61.255 176.100,60.296 177.058 M263.805 184.377 C 264.172 184.964,264.155 185.412,263.737 186.081 C 263.425 186.580,263.170 187.402,263.170 187.907 C 263.170 188.412,262.974 188.826,262.734 188.826 C 262.495 188.826,262.158 189.595,261.985 190.536 C 261.812 191.477,261.546 192.349,261.394 192.474 C 260.806 192.960,259.977 194.782,259.977 195.591 C 259.977 196.057,259.695 197.035,259.350 197.763 C 259.005 198.492,258.442 199.755,258.098 200.570 C 257.755 201.385,257.345 202.052,257.188 202.052 C 257.030 202.052,256.770 202.873,256.609 203.877 C 256.449 204.880,256.163 205.701,255.974 205.701 C 255.635 205.701,254.048 209.015,254.048 209.725 C 254.048 210.293,250.496 217.150,249.776 217.972 C 249.425 218.373,248.984 219.213,248.795 219.840 C 248.606 220.468,248.315 221.083,248.147 221.209 C 247.783 221.482,246.302 224.604,246.276 225.154 C 246.265 225.367,245.650 226.252,244.907 227.121 C 244.165 227.989,243.558 228.926,243.558 229.202 C 243.558 229.478,242.942 230.294,242.189 231.015 C 241.437 231.736,240.821 232.548,240.821 232.820 C 240.821 233.091,238.871 235.255,236.488 237.628 C 234.105 240.001,232.155 242.099,232.155 242.289 C 232.155 242.855,230.624 244.470,230.087 244.470 C 229.813 244.470,228.986 245.102,228.250 245.875 C 227.513 246.647,226.049 247.673,224.998 248.155 C 223.946 248.636,222.814 249.389,222.482 249.828 C 221.830 250.692,220.642 251.520,219.086 252.196 C 218.546 252.431,217.968 252.844,217.801 253.114 C 217.634 253.385,216.836 253.882,216.028 254.219 C 215.220 254.557,214.251 255.118,213.875 255.467 C 212.825 256.440,211.517 257.093,209.910 257.446 C 209.106 257.622,208.331 257.956,208.188 258.188 C 207.804 258.809,203.562 258.699,202.443 258.039 C 201.670 257.583,201.436 257.583,201.271 258.039 C 201.140 258.399,200.155 258.609,198.590 258.609 C 195.089 258.609,193.387 257.101,193.387 253.999 C 193.387 252.801,193.181 251.694,192.930 251.539 C 192.680 251.384,192.474 249.640,192.474 247.662 C 192.474 245.685,192.680 243.941,192.930 243.786 C 193.181 243.631,193.387 242.707,193.387 241.733 C 193.387 240.759,193.563 239.853,193.779 239.720 C 193.995 239.587,194.296 238.566,194.449 237.452 C 194.602 236.337,195.119 234.727,195.598 233.873 C 196.078 233.020,196.609 231.617,196.779 230.756 C 197.073 229.270,197.907 227.176,198.403 226.682 C 198.843 226.243,200.228 222.997,200.228 222.404 C 200.228 222.075,200.627 221.445,201.114 221.004 C 201.602 220.563,202.131 219.607,202.291 218.881 C 202.450 218.154,202.722 217.560,202.893 217.560 C 203.065 217.560,203.566 216.790,204.007 215.849 C 204.788 214.184,205.455 213.092,207.269 210.508 C 207.755 209.816,209.551 207.862,211.260 206.167 C 212.969 204.471,214.367 202.852,214.367 202.568 C 214.367 202.285,214.658 202.052,215.013 202.052 C 215.369 202.052,215.728 201.895,215.811 201.702 C 216.070 201.105,220.556 197.491,221.039 197.491 C 221.289 197.491,222.084 196.876,222.805 196.123 C 223.526 195.371,224.473 194.755,224.910 194.755 C 225.347 194.755,225.984 194.498,226.326 194.185 C 227.226 193.360,228.497 192.589,230.445 191.685 C 231.385 191.248,232.155 190.734,232.155 190.542 C 232.155 190.351,232.586 190.194,233.112 190.194 C 233.987 190.194,236.197 189.383,238.192 188.331 C 238.628 188.101,239.397 187.913,239.903 187.913 C 240.408 187.913,240.821 187.717,240.821 187.478 C 240.821 187.238,241.591 186.919,242.531 186.769 C 243.472 186.618,244.598 186.301,245.034 186.064 C 245.469 185.827,246.301 185.633,246.881 185.633 C 247.461 185.633,248.153 185.416,248.417 185.152 C 248.682 184.887,251.501 184.548,254.682 184.398 C 257.863 184.247,260.581 183.939,260.721 183.712 C 261.130 183.049,263.261 183.509,263.805 184.377 " stroke="none" fill="#000000" fill-rule="evenodd"></path></g></svg>